<?xml version="1.0" standalone="no"?>
<!DOCTYPE svg PUBLIC "-//W3C//DTD SVG 20010904//EN"
 "http://www.w3.org/TR/2001/REC-SVG-20010904/DTD/svg10.dtd">
<svg version="1.0" xmlns="http://www.w3.org/2000/svg"
 width="341.000000pt" height="191.000000pt" viewBox="0 0 341.000000 191.000000"
 preserveAspectRatio="xMidYMid meet">

<g transform="translate(0.000000,191.000000) scale(0.100000,-0.100000)"
fill="#000000" stroke="none">
<path d="M1595 1740 c3 -5 13 -10 21 -10 11 0 14 -24 14 -134 0 -127 -1 -134
-22 -149 -22 -15 -20 -16 40 -16 35 -1 62 3 62 9 0 6 -6 10 -14 10 -19 0 -26
22 -26 78 0 58 18 96 48 100 43 6 52 -13 52 -109 l0 -89 43 1 c41 0 41 0 20
16 -21 14 -23 24 -23 94 0 66 -3 82 -20 99 -24 24 -77 26 -102 3 -17 -15 -18
-14 -18 45 l0 62 -41 0 c-24 0 -38 -4 -34 -10z"/>
<path d="M1310 1695 c0 -40 15 -47 24 -10 5 21 12 25 41 25 l35 0 0 -107 c0
-127 -6 -153 -31 -153 -11 0 -19 -4 -19 -10 0 -6 28 -10 65 -10 63 0 86 12 45
23 -19 5 -20 14 -20 131 l0 126 30 0 c23 0 33 -6 40 -25 14 -36 30 -31 30 10
l0 35 -120 0 -120 0 0 -35z"/>
<path d="M1936 1629 c-37 -44 -37 -124 0 -168 21 -25 33 -31 66 -31 46 0 78
15 78 36 0 13 -4 13 -30 -1 -16 -8 -34 -15 -40 -15 -19 0 -60 48 -60 70 0 18
6 20 70 20 l70 0 0 35 c0 82 -101 117 -154 54z m102 -22 c18 -37 9 -47 -45
-47 -44 0 -45 1 -38 27 4 16 11 34 17 41 17 20 52 10 66 -21z"/>
<path d="M1986 1300 c-41 -26 -65 -76 -66 -132 l0 -48 -40 0 c-33 0 -40 -3
-40 -20 0 -17 7 -20 40 -20 l40 0 0 -178 c0 -161 -2 -181 -18 -195 -22 -20
-83 -22 -100 -5 -8 8 -12 57 -12 152 -1 188 -20 241 -97 267 -55 18 -118 3
-157 -36 l-34 -33 -20 28 c-44 59 -155 65 -207 10 -36 -38 -45 -38 -45 0 l0
30 -70 0 c-63 0 -70 -2 -70 -20 0 -13 7 -20 20 -20 11 0 27 -11 35 -24 14 -21
16 -51 13 -186 -3 -172 -6 -180 -55 -180 -16 0 -23 -6 -23 -20 0 -19 7 -20
121 -20 107 0 120 2 117 17 -2 9 -16 20 -32 24 -16 5 -33 14 -37 21 -15 23
-10 255 5 292 26 63 99 86 147 47 23 -19 24 -23 27 -210 l3 -191 80 0 c71 0
80 2 77 18 -2 9 -13 18 -25 20 -41 6 -45 23 -41 182 l3 152 28 24 c38 32 90
32 122 -1 25 -24 25 -26 25 -210 l0 -185 206 0 c190 0 205 1 202 18 -2 12 -14
18 -40 20 -63 5 -68 21 -68 219 l0 173 66 0 c57 0 65 2 62 18 -3 14 -16 18
-66 20 l-62 3 0 44 c0 48 15 95 33 107 18 12 62 9 75 -4 7 -7 12 -20 12 -29 0
-25 14 -31 43 -20 39 15 45 50 13 78 -36 31 -146 33 -190 3z"/>
<path d="M2960 1203 c-30 -81 -54 -101 -102 -84 -65 23 -125 3 -158 -51 l-19
-31 -6 29 c-4 16 -8 35 -11 42 -2 8 -25 12 -69 12 -56 0 -65 -3 -65 -18 0 -12
11 -21 33 -27 l32 -10 3 -174 c3 -185 -1 -201 -44 -201 -17 0 -24 -6 -24 -20
0 -19 7 -20 125 -20 118 0 125 1 125 20 0 16 -7 20 -33 20 -18 0 -38 5 -45 12
-16 16 -16 242 -1 289 27 80 82 101 109 42 8 -18 18 -33 22 -33 24 -1 58 23
64 45 15 59 23 14 26 -153 3 -203 10 -223 77 -243 56 -17 131 -4 131 22 0 16
-7 19 -43 19 -74 0 -77 9 -77 208 l0 172 55 0 c52 0 55 1 55 25 0 24 -3 25
-54 25 l-55 0 -3 52 c-2 41 -7 54 -20 56 -12 2 -21 -6 -28 -25z"/>
<path d="M439 1120 c-82 -25 -121 -89 -127 -210 -5 -105 9 -160 53 -209 55
-61 151 -78 232 -42 46 21 67 51 58 82 -7 21 -7 21 -28 1 -76 -69 -189 -51
-218 35 -15 41 -18 157 -6 214 11 55 48 89 95 89 45 0 66 -19 77 -68 6 -30 10
-33 33 -27 32 8 38 13 46 42 5 16 -1 30 -21 53 -39 43 -125 61 -194 40z"/>
<path d="M795 1116 c-50 -19 -100 -72 -114 -123 -16 -56 -13 -174 4 -224 32
-88 111 -136 209 -126 108 11 160 65 178 185 9 58 8 82 -5 137 -20 79 -44 117
-92 140 -51 23 -132 28 -180 11z m128 -47 c41 -19 61 -66 65 -159 7 -151 -28
-220 -111 -220 -86 0 -121 57 -121 195 0 94 15 147 51 175 28 22 79 26 116 9z"/>
<path d="M2250 1118 c-95 -27 -134 -95 -134 -233 0 -109 24 -172 84 -211 78
-51 202 -40 263 24 53 55 73 181 46 289 -28 108 -140 165 -259 131z m133 -58
c35 -28 51 -81 51 -175 0 -139 -35 -195 -121 -195 -83 0 -119 70 -111 220 5
95 20 135 57 155 38 21 94 18 124 -5z"/>
<path d="M1085 369 c-13 -19 4 -54 35 -71 20 -11 28 -22 24 -32 -8 -21 -40
-20 -54 2 -10 15 -10 15 -8 -3 5 -29 63 -34 78 -6 9 18 7 25 -14 46 -14 14
-30 25 -36 25 -5 0 -10 9 -10 20 0 22 35 29 43 8 2 -7 8 -10 12 -6 4 4 4 11 0
17 -8 14 -62 14 -70 0z"/>
<path d="M1341 363 c0 -11 3 -13 6 -5 2 6 11 12 19 12 19 0 20 -116 2 -123 -7
-3 5 -5 27 -5 22 0 34 2 28 5 -19 7 -18 123 1 123 8 0 17 -6 19 -12 3 -8 6 -6
6 5 1 14 -8 17 -54 17 -46 0 -55 -3 -54 -17z"/>
<path d="M1640 361 c-15 -29 -12 -87 6 -105 23 -24 70 -20 88 6 22 30 20 81
-2 101 -26 24 -79 22 -92 -2z m84 -23 c19 -55 -22 -109 -59 -78 -18 15 -20 81
-3 98 20 20 52 10 62 -20z"/>
<path d="M1938 368 c7 -7 12 -33 12 -58 0 -25 -5 -51 -12 -58 -9 -9 -6 -12 13
-12 23 0 25 3 21 30 -5 38 8 38 30 0 9 -17 24 -30 33 -30 13 0 12 5 -7 30 -17
23 -19 33 -10 42 17 17 15 55 -4 62 -9 3 -32 6 -52 6 -28 0 -33 -3 -24 -12z
m67 -28 c0 -16 -6 -26 -17 -28 -14 -3 -18 3 -18 28 0 25 4 31 18 28 11 -2 17
-12 17 -28z"/>
<path d="M2225 310 l0 -70 48 0 c38 0 47 3 47 17 0 13 -3 14 -12 5 -7 -7 -23
-12 -36 -12 -20 0 -23 4 -20 27 2 19 10 29 28 34 l25 7 -27 1 c-23 1 -28 6
-28 26 0 20 5 25 25 25 14 0 25 -4 25 -10 0 -5 5 -10 10 -10 6 0 10 7 10 15 0
11 -12 15 -47 15 l-48 0 0 -70z"/>
</g>
</svg>
